<svg width="325" height="65" viewBox="0 0 465 93" fill="none" xmlns="http://www.w3.org/2000/svg">
<path fill-rule="evenodd" clip-rule="evenodd" d="M76.852 40.5989L46.3551 18.7037V0L76.852 21.8602V40.5989ZM76.852 68.313L60.9936 56.9457V38.2237L76.852 49.6092V68.313ZM23.1774 31.9342L53.6743 53.8295V34.0585L23.1774 12.1983V31.9342ZM37.8159 69.1441L53.6743 80.5113V62.8397L37.8159 51.4542V69.1441ZM0 24.3973L30.4969 46.2575V66.2161L0 44.3209V24.3973ZM0 53.3312L30.4969 75.2264V92.7103L0 70.8502V53.3312ZM386.278 68.9496C371.6 68.9496 362.906 60.3819 362.906 47.2153C362.906 34.0488 371.6 25.4811 386.278 25.4811C401.335 25.4811 409.902 34.0488 409.902 47.2153C409.902 60.3819 401.335 68.9496 386.278 68.9496ZM386.278 57.61C394.846 57.61 397.303 55.594 397.303 47.2153C397.303 38.8366 394.846 36.8207 386.278 36.8207C377.711 36.8207 375.506 38.8366 375.506 47.2153C375.506 55.594 377.711 57.61 386.278 57.61ZM431.283 68.3196H419.439V26.1111H431.283V41.7975H439.788L450.056 26.1111H464.231L449.615 46.8373L463.916 68.3196H449.741L439.914 53.3261H431.283V68.3196ZM319.26 68.3196H355.484V57.6729H331.104V26.1111H319.26V68.3196ZM267.547 68.3196H254.255L272.461 26.1111H289.407L307.677 68.3196H294.069L290.856 60.5078H270.823L267.547 68.3196ZM277.753 43.9394L275.296 49.8612H286.51L284.053 43.9394L281.281 36.8207H280.462L277.753 43.9394ZM226.731 68.3196H238.574V36.7577H253.442V26.1111H211.8V36.7577H226.731V68.3196ZM170.875 68.3196H157.583L175.789 26.1111H192.735L211.005 68.3196H197.397L194.184 60.5078H174.151L170.875 68.3196ZM181.081 43.9394L178.624 49.8612H189.837L187.381 43.9394L184.609 36.8207H183.79L181.081 43.9394ZM112.276 68.3196H130.801C144.724 68.3196 153.543 60.5708 153.543 47.2153C153.543 33.8598 144.724 26.1111 130.801 26.1111H109.445V26.112H103.417V36.7605H109.445V57.6714H103.417V68.3199H112.276V68.3196ZM121.289 36.7577H130.801C138.298 36.7577 140.881 37.7026 140.881 47.2153C140.881 56.728 138.298 57.6729 130.801 57.6729H121.289V36.7577Z" fill="#15ff5f"/>
</svg>
