<svg  
  viewBox="0 0 17 23"
  fill="none"
  xmlns="http://www.w3.org/2000/svg"
>
  <path
    d="M6.47924 1.72222H13.8324V0.5H5.25371H1.57711V1.72222H6.47924ZM11.3814 2.94448H12.6069V1.72226H4.02816H0.351562V2.94448H1.57711V4.16667H6.47924H11.3814V2.94448ZM10.1558 5.3889H6.47924V6.61109H1.57711V5.3889H0.351565V4.16668H4.02816H10.1558V5.3889ZM5.25369 6.61114H0.351565V7.83335H1.57711V9.05555H6.47924V7.83333H5.25369V6.61114ZM11.3813 4.16668H12.6069V10.2777H13.8324V9.05555H12.6069V2.94445H13.8324V4.16668H15.0579V10.2777H15.058V11.5H13.8324H10.1558H8.93031V10.2777H10.1558H11.3813V4.16668ZM0.351565 9.05559H5.25369V10.2777H6.47924V11.5H1.57711V10.2778H0.351565V9.05559ZM5.25369 11.5H0.351565V12.7222H1.57711V13.9444H7.70477H10.1558H12.6069V12.7222H13.8324V11.5H12.6069H8.93026H7.70473V12.7222H5.25369V11.5ZM6.47922 13.9445H0.351565V15.1667H1.57711V16.3888H6.47924V15.1667H8.93029H11.3813V13.9445H8.93029H6.47922ZM0.351565 16.3889H5.25369V17.6111H6.47924V18.8333H1.57711V17.6111H0.351565V16.3889ZM5.25369 18.8333H0.351565V20.0556H1.57711V21.2777H6.47924V20.0555H5.25369V18.8333ZM0.351565 21.2778H5.25369V22.5H0.351565V21.2778ZM16.2835 2.94445H15.058V9.05555H16.2835V2.94445Z"
    fill="currentcolor"
  />
</svg>
